<?xml version="1.0" encoding="utf-8"?>
<!-- Generator: Adobe Illustrator 27.8.1, SVG Export Plug-In . SVG Version: 6.00 Build 0)  -->
<svg version="1.1" id="圖層_1" xmlns="http://www.w3.org/2000/svg" xmlns:xlink="http://www.w3.org/1999/xlink" x="0px" y="0px"
	 viewBox="0 0 46 46" style="enable-background:new 0 0 46 46;" xml:space="preserve">
<style type="text/css">
	.st0{fill:#BCBCBC;}
	.st1{fill:none;}
</style>
<path class="st0" d="M19.6,38.3C9.1,38.3,0.5,30,0.5,19.7C0.5,9.3,9.1,1,19.6,1s19.1,8.4,19.1,18.7C38.6,30,30.1,38.3,19.6,38.3z
	 M19.6,3C10.2,3,2.5,10.4,2.5,19.7s7.6,16.7,17.1,16.7c9.4,0,17.1-7.5,17.1-16.7S29,3,19.6,3z"/>
<path class="st0" d="M41.5,45c-0.3,0-0.5-0.1-0.7-0.3L30.1,34.2c-0.4-0.4-0.4-1,0-1.4s1-0.4,1.4,0l10,9.8l1.5-1.5l-10-9.8
	c-0.4-0.4-0.4-1,0-1.4s1-0.4,1.4,0l10.7,10.5c0.2,0.2,0.3,0.4,0.3,0.7s-0.1,0.5-0.3,0.7l-2.9,2.9C42,44.9,41.8,45,41.5,45z"/>
<path class="st0" d="M19.6,33.6c-3.8,0-7.3-1.4-10-4c-0.4-0.4-0.4-1,0-1.4s1-0.4,1.4,0c2.3,2.2,5.3,3.5,8.6,3.5c0.6,0,1,0.4,1,1
	S20.1,33.6,19.6,33.6z"/>
<rect x="0.6" y="1" class="st1" width="44.9" height="44"/>
</svg>
